<svg width="16" height="12" viewBox="0 0 16 12" fill="none" xmlns="http://www.w3.org/2000/svg">
<path d="M4.21155 0.616455C3.35811 0.616455 2.85662 1.16827 2.80225 1.23108C2.63443 1.42514 2.65646 1.71538 2.84802 1.88538C3.03958 2.05538 3.33408 2.03752 3.5072 1.84814C3.51814 1.83627 3.78094 1.55396 4.21094 1.55396C4.54812 1.55396 4.71936 1.68521 4.71936 1.94458C4.71936 2.26364 4.37671 2.33521 4.25671 2.33521H4.09436C3.8353 2.33521 3.62561 2.54489 3.62561 2.80396C3.62561 3.06302 3.8353 3.27271 4.09436 3.27271C4.38467 3.27271 4.87561 3.35489 4.87561 3.66333C4.87561 4.00302 4.50993 4.05396 4.29211 4.05396C3.78586 4.05396 3.51772 3.7706 3.51147 3.76404C3.34179 3.5681 3.04548 3.54676 2.84985 3.71582C2.65392 3.8852 2.63226 4.18089 2.80164 4.37683C2.85601 4.43964 3.35932 4.99146 4.2915 4.99146C5.20119 4.99146 5.8125 4.45771 5.8125 3.66333C5.8125 3.28802 5.65832 2.97079 5.3877 2.74048C5.55363 2.53017 5.65686 2.26146 5.65686 1.94458C5.65686 1.16271 5.0628 0.616455 4.21155 0.616455ZM11.75 0.616455C10.8884 0.616455 10.1875 1.31739 10.1875 2.17896V3.42896C10.1875 4.29052 10.8884 4.99146 11.75 4.99146C12.6116 4.99146 13.3125 4.29052 13.3125 3.42896V2.17896C13.3125 1.31739 12.6116 0.616455 11.75 0.616455ZM8.60364 0.617065C7.85426 0.651128 6.4375 1.26592 6.4375 3.34717C6.4375 3.35622 6.44005 3.36449 6.44055 3.37341C6.43989 3.39203 6.4375 3.41018 6.4375 3.42896C6.4375 4.29052 7.13844 4.99146 8 4.99146C8.86156 4.99146 9.5625 4.29052 9.5625 3.42896C9.5625 2.56739 8.86156 1.86646 8 1.86646C7.97276 1.86646 7.94633 1.86934 7.91943 1.87073C8.23387 1.59782 8.58007 1.5581 8.65002 1.55334C8.90659 1.53959 9.1047 1.32134 9.09314 1.06384C9.08158 0.805405 8.86364 0.609565 8.60364 0.617065ZM11.75 1.55396C12.0947 1.55396 12.375 1.83427 12.375 2.17896V3.42896C12.375 3.77364 12.0947 4.05396 11.75 4.05396C11.4053 4.05396 11.125 3.77364 11.125 3.42896V2.17896C11.125 1.83427 11.4053 1.55396 11.75 1.55396ZM8 2.80396C8.34469 2.80396 8.625 3.08427 8.625 3.42896C8.625 3.77364 8.34469 4.05396 8 4.05396C7.65531 4.05396 7.375 3.77364 7.375 3.42896C7.375 3.08427 7.65531 2.80396 8 2.80396ZM2.13086 5.34912C1.13555 5.79787 0.5 6.40656 0.5 7.1875C0.5 8.96626 3.794 9.8512 7.13513 9.98108L6.77686 10.3394C6.71687 10.3969 6.66898 10.4659 6.63599 10.5423C6.603 10.6186 6.58557 10.7007 6.58472 10.7839C6.58388 10.867 6.59963 10.9495 6.63106 11.0265C6.66249 11.1035 6.70897 11.1734 6.76777 11.2322C6.82657 11.291 6.89651 11.3375 6.97349 11.3689C7.05048 11.4004 7.13296 11.4161 7.21612 11.4153C7.29927 11.4144 7.38141 11.397 7.45774 11.364C7.53407 11.331 7.60305 11.2831 7.66064 11.2231L9.06689 9.81689C9.18406 9.69968 9.24988 9.54073 9.24988 9.375C9.24988 9.20927 9.18406 9.05032 9.06689 8.93311L7.66064 7.52686C7.60233 7.46691 7.53258 7.41928 7.45552 7.38678C7.37846 7.35428 7.29567 7.33757 7.21204 7.33765C7.08775 7.3378 6.96634 7.375 6.8633 7.44449C6.76027 7.51398 6.68028 7.61262 6.63357 7.72779C6.58686 7.84295 6.57555 7.96943 6.60107 8.09107C6.62659 8.2127 6.68779 8.32396 6.77686 8.41064L7.09607 8.72986C3.56887 8.58485 1.75 7.61908 1.75 7.1875C1.75 6.91625 2.47199 6.43416 3.88074 6.07666C3.15042 5.8801 2.55367 5.63162 2.13086 5.34912ZM13.8698 5.34912C13.4466 5.63162 12.8502 5.8801 12.1199 6.07666C13.5283 6.43416 14.25 6.91625 14.25 7.1875C14.25 7.38312 13.5664 8.04821 11.3661 8.46008C11.0267 8.52352 10.8034 8.85008 10.8668 9.18945C10.9303 9.52852 11.2581 9.75341 11.5962 9.68872C14.1137 9.21716 15.5 8.32906 15.5 7.1875C15.5 6.40656 14.8648 5.79787 13.8698 5.34912Z" fill="white"/>
</svg>
