<svg width="15" height="11" viewBox="0 0 15 11" fill="none" xmlns="http://www.w3.org/2000/svg">
<path d="M13.7059 1.39062C13.5525 1.39062 13.3966 1.43545 13.2556 1.53257L10.5417 3.27324V1.78408C10.5417 1.12666 9.96771 0.59375 9.26016 0.59375H1.53151C0.823958 0.59375 0.25 1.12666 0.25 1.78408V8.96592C0.25 9.62334 0.823958 10.1562 1.53151 10.1562H9.26016C9.96771 10.1562 10.5417 9.62334 10.5417 8.96592V7.47676L13.2531 9.21743C13.3941 9.31704 13.5525 9.35938 13.7034 9.35938C14.1141 9.35938 14.4975 9.03564 14.4975 8.57495V2.17505C14.5 1.71436 14.1165 1.39062 13.7059 1.39062ZM9.75 8.96592C9.75 9.18008 9.52487 9.35938 9.26016 9.35938H1.53151C1.2668 9.35938 1.04167 9.18008 1.04167 8.96592V1.78408C1.04167 1.56992 1.2668 1.39062 1.53151 1.39062H9.26016C9.52487 1.39062 9.75 1.56992 9.75 1.78408V8.96592ZM13.7083 8.57495L13.6786 8.54258L10.5417 6.53047V4.21704L13.7083 2.1875V8.57495Z" fill="white"/>
</svg>
