<svg width="16" height="16" viewBox="0 0 16 16" fill="none" xmlns="http://www.w3.org/2000/svg">
<path d="M13 5.33329H11.7708C11.9167 5.08329 12 4.81246 12 4.49996C12 3.49996 11.1667 2.66663 10.1667 2.66663C9.29167 2.66663 8.72917 3.12496 8 4.10413C7.29167 3.12496 6.72917 2.66663 5.85417 2.66663C4.85417 2.66663 4.02083 3.49996 4.02083 4.49996C4.02083 4.81246 4.10417 5.08329 4.25 5.33329H3C2.4375 5.33329 2 5.79163 2 6.33329V12.3333C2 12.8958 2.4375 13.3333 3 13.3333H13C13.5417 13.3333 14 12.8958 14 12.3333V6.33329C14 5.79163 13.5417 5.33329 13 5.33329ZM10.1667 3.66663C10.625 3.66663 11 4.04163 11 4.49996C11 4.97913 10.625 5.33329 10.1667 5.33329H8.35417C9.4375 3.74996 9.72917 3.66663 10.1667 3.66663ZM5.02083 4.49996C5.02083 4.04163 5.39583 3.66663 5.85417 3.66663C6.27083 3.66663 6.58333 3.74996 7.66667 5.33329H5.85417C5.39583 5.33329 5.02083 4.97913 5.02083 4.49996ZM6.625 6.33329L5.54167 7.41663C5.41667 7.54163 5.41667 7.77079 5.54167 7.89579L5.77083 8.12496C5.89583 8.24996 6.125 8.24996 6.25 8.12496L8 6.37496L9.72917 8.12496C9.85417 8.24996 10.0833 8.24996 10.2083 8.12496L10.4375 7.89579C10.5625 7.77079 10.5625 7.54163 10.4375 7.41663L9.35417 6.33329H13V9.33329H3V6.33329H6.625ZM3 12.3333V10.6666H13V12.3333H3Z" fill="white"/>
</svg>
