<svg width="22" height="20" viewBox="0 0 22 20" fill="none" xmlns="http://www.w3.org/2000/svg">
<path d="M20.2547 1.95726C19.1159 0.695126 17.5532 0 15.8543 0C14.5844 0 13.4214 0.410249 12.3975 1.21926C11.8809 1.62762 11.4127 2.12723 11 2.71036C10.5874 2.1274 10.1191 1.62762 9.60234 1.21926C8.57864 0.410249 7.41563 0 6.14571 0C4.44676 0 2.88394 0.695126 1.7451 1.95726C0.619858 3.20464 0 4.90876 0 6.75591C0 8.65708 0.693375 10.3974 2.18201 12.2329C3.5137 13.8747 5.42766 15.5415 7.64407 17.4714C8.40089 18.1306 9.25876 18.8776 10.1495 19.6734C10.3848 19.8841 10.6868 20 11 20C11.313 20 11.6152 19.8841 11.8501 19.6738C12.7409 18.8778 13.5993 18.1304 14.3564 17.4709C16.5725 15.5413 18.4865 13.8747 19.8182 12.2327C21.3068 10.3974 22 8.65708 22 6.75574C22 4.90876 21.3801 3.20464 20.2547 1.95726Z" fill="#FF5555"/>
</svg>
