<svg width="30" height="34" viewBox="0 0 30 34" fill="none" xmlns="http://www.w3.org/2000/svg">
<path d="M26.5183 5.90292C23.7693 2.1518 19.4127 0 14.5664 0C9.71998 0 5.36337 2.1518 2.61446 5.90292C-0.120953 9.63507 -0.752569 14.3601 0.92152 18.5346C1.3693 19.6746 2.08109 20.7821 3.03206 21.82L13.6079 33.5325C13.847 33.7976 14.1975 33.9504 14.5664 33.9504C14.9352 33.9504 15.2857 33.7977 15.5249 33.5325L26.0977 21.8232C27.0529 20.7793 27.7638 19.673 28.2078 18.5421C29.8853 14.3601 29.2537 9.63507 26.5183 5.90292ZM25.8501 17.7108C25.5077 18.5832 24.9487 19.4459 24.1895 20.2756C24.1874 20.2776 24.1853 20.2796 24.1836 20.282L14.5664 30.9324L4.94323 20.2753C4.18446 19.4463 3.62542 18.5837 3.27962 17.7029C1.89514 14.2505 2.42056 10.3438 4.68555 7.25304C6.95764 4.15242 10.5593 2.37414 14.5664 2.37414C18.5734 2.37414 22.1746 4.15236 24.4467 7.25304C26.7121 10.3438 27.238 14.2505 25.8501 17.7108Z" fill="#1F4F54"/>
<path d="M14.5669 7.04346C10.6795 7.04346 7.51642 10.0254 7.51642 13.6911C7.51642 17.3568 10.6791 20.3387 14.5669 20.3387C18.4548 20.3387 21.6175 17.3568 21.6175 13.6911C21.6175 10.0258 18.4544 7.04346 14.5669 7.04346ZM14.5669 17.9645C12.0678 17.9645 10.0344 16.0474 10.0344 13.691C10.0344 11.3347 12.0678 9.41753 14.5669 9.41753C17.0661 9.41753 19.0995 11.3347 19.0995 13.691C19.0995 16.0474 17.0661 17.9645 14.5669 17.9645Z" fill="#1F4F54"/>
</svg>
