<svg width="18" height="18" viewBox="0 0 18 18" fill="none" xmlns="http://www.w3.org/2000/svg">
<path d="M12.0815 4.30239L8.89949 7.48438L5.71751 4.30239C5.54074 4.12562 5.18718 4.12562 5.01041 4.30239L4.3033 5.0095C4.10443 5.20838 4.12652 5.53983 4.3033 5.71661L7.48528 8.89859L4.3033 12.0806C4.10443 12.2794 4.12652 12.6109 4.3033 12.7877L5.01041 13.4948C5.20928 13.6937 5.51864 13.6937 5.71751 13.4948L8.89949 10.3128L12.0815 13.4948C12.2803 13.6937 12.5897 13.6937 12.7886 13.4948L13.4957 12.7877C13.6725 12.6109 13.6946 12.2794 13.4957 12.0806L10.3137 8.89859L13.4957 5.71661C13.6725 5.53983 13.6946 5.20838 13.4957 5.0095L12.7886 4.30239C12.6118 4.12562 12.2583 4.12562 12.0815 4.30239Z" fill="#265653"/>
</svg>
