<svg width="19" height="19" viewBox="0 0 19 19" fill="none" xmlns="http://www.w3.org/2000/svg">
<path d="M18.8608 17.3788L14.3683 12.8952C14.257 12.8211 14.1456 12.747 14.0342 12.747H13.5515C14.7025 11.413 15.445 9.63432 15.445 7.70746C15.445 3.48318 11.9551 0 7.72252 0C3.45286 0 0 3.48318 0 7.70746C0 11.9688 3.45286 15.4149 7.72252 15.4149C9.65315 15.4149 11.3981 14.7109 12.7719 13.5622V14.0439C12.7719 14.155 12.809 14.2662 12.8832 14.3774L17.3757 18.861C17.5613 19.0463 17.8583 19.0463 18.0068 18.861L18.8608 18.0088C19.0464 17.8606 19.0464 17.5641 18.8608 17.3788ZM7.72252 13.6363C4.41817 13.6363 1.78212 11.0054 1.78212 7.70746C1.78212 4.44661 4.41817 1.77864 7.72252 1.77864C10.9897 1.77864 13.6629 4.44661 13.6629 7.70746C13.6629 11.0054 10.9897 13.6363 7.72252 13.6363Z" fill="white"/>
</svg>
