<svg width="77" height="14" viewBox="0 0 77 14" fill="none" xmlns="http://www.w3.org/2000/svg">
<g clip-path="url(#clip0_1_118)">
<path d="M7.1881 14C11.1257 14 14.3177 10.866 14.3177 7C14.3177 3.13401 11.1257 0 7.1881 0C3.25051 0 0.0584717 3.13401 0.0584717 7C0.0584717 10.866 3.25051 14 7.1881 14Z" fill="#418CCF"/>
<path d="M18.2518 11.8721C17.9524 11.8721 17.7385 11.8021 17.6244 11.6901C17.5103 11.5641 17.4533 11.3541 17.4533 11.0741V2.85607C17.4533 2.59007 17.5103 2.38007 17.6244 2.25407C17.7385 2.12807 17.9524 2.05807 18.2518 2.05807L20.8898 2.04407C21.6598 2.04407 22.33 2.17007 22.9003 2.40807C23.4707 2.64607 23.9413 2.98207 24.312 3.41607C24.6828 3.85007 24.9537 4.35407 25.139 4.94205C25.3244 5.53005 25.41 6.18805 25.41 6.90205C25.41 7.60205 25.3244 8.26005 25.1676 8.86205C25.0107 9.46405 24.7541 9.99605 24.3976 10.4441C24.0411 10.8921 23.5848 11.2421 23.0287 11.4941C22.4726 11.7461 21.8024 11.8861 21.0324 11.8861H18.2518V11.8721ZM23.6133 6.91605C23.6133 6.44005 23.5705 6.00605 23.4707 5.60005C23.3852 5.19405 23.2283 4.84405 23.0002 4.53607C22.7863 4.22807 22.4868 3.99007 22.1161 3.82207C21.7453 3.65407 21.289 3.57007 20.7329 3.57007H19.1929V10.3321H20.7757C21.3318 10.3321 21.7881 10.2481 22.1446 10.0801C22.5011 9.91205 22.7863 9.67405 23.0002 9.36605C23.214 9.05805 23.3709 8.70805 23.4565 8.28805C23.5705 7.86805 23.6133 7.40605 23.6133 6.91605Z" fill="white"/>
<path d="M33.3382 8.16206C33.3382 9.40806 33.053 10.3601 32.4684 11.0321C31.8837 11.7041 31.0139 12.0261 29.8446 12.0261C28.6896 12.0261 27.8341 11.7041 27.278 11.0601C26.7076 10.4161 26.4224 9.46406 26.4224 8.20406C26.4224 7.58806 26.508 7.04206 26.6791 6.56606C26.8502 6.09006 27.0926 5.68406 27.3921 5.36206C27.6915 5.04006 28.0622 4.78806 28.49 4.60609C28.9178 4.43809 29.3884 4.34009 29.8874 4.34009C31.0139 4.34009 31.8837 4.67606 32.4684 5.36206C33.053 6.03406 33.3382 6.97206 33.3382 8.16206ZM31.6413 8.19006C31.6413 7.85406 31.6128 7.53206 31.5558 7.23806C31.4987 6.94406 31.4132 6.67806 31.2848 6.44006C31.1565 6.21606 30.9854 6.03406 30.7572 5.89406C30.5291 5.76806 30.2439 5.69806 29.9017 5.69806C29.6022 5.69806 29.3313 5.76806 29.1032 5.89406C28.875 6.02006 28.6896 6.18806 28.5328 6.41206C28.3759 6.62206 28.2619 6.88806 28.1906 7.18206C28.1193 7.47606 28.0765 7.81206 28.0765 8.14806C28.0765 8.93206 28.2048 9.53406 28.4615 9.98206C28.7182 10.4301 29.1745 10.6541 29.8304 10.6541C30.1584 10.6541 30.4435 10.5841 30.6717 10.4441C30.8998 10.3041 31.0852 10.1221 31.2278 9.89806C31.3704 9.67406 31.4702 9.40806 31.5272 9.11407C31.6128 8.83406 31.6413 8.52606 31.6413 8.19006Z" fill="white"/>
<path d="M36.1044 11.83C36.0616 11.858 35.9904 11.872 35.8905 11.872H34.7783C34.6785 11.872 34.6215 11.858 34.5787 11.83C34.5359 11.802 34.5074 11.732 34.5074 11.634V5.67004C34.5074 5.50204 34.5216 5.34804 34.5502 5.22204C34.5787 5.09604 34.6215 4.97004 34.6928 4.87204C34.7641 4.77404 34.8496 4.69004 34.9779 4.62005C35.1063 4.55005 35.2631 4.49405 35.477 4.45205C35.5483 4.43805 35.6481 4.42405 35.7907 4.41005C35.9333 4.39605 36.0902 4.38205 36.2613 4.36805C36.4324 4.35405 36.5892 4.35405 36.7603 4.34005C36.9172 4.32605 37.0598 4.32605 37.1739 4.32605C37.7585 4.32605 38.2433 4.38205 38.6568 4.49405C39.0704 4.60605 39.4268 4.78804 39.7405 5.02604C40.0685 4.81604 40.4678 4.63405 40.9241 4.52205C41.3804 4.41005 41.8652 4.32605 42.3785 4.32605C42.9631 4.32605 43.4765 4.41005 43.89 4.57805C44.3035 4.74604 44.6457 4.98404 44.9167 5.27804C45.1733 5.57204 45.3729 5.93604 45.5013 6.37004C45.6296 6.79004 45.6867 7.26604 45.6867 7.75604V11.62C45.6867 11.718 45.6581 11.788 45.6296 11.816C45.5868 11.844 45.5155 11.858 45.4015 11.858H44.3035C44.2037 11.858 44.1324 11.844 44.0896 11.816C44.0468 11.788 44.0326 11.718 44.0326 11.62V7.98004C44.0326 7.22404 43.89 6.66404 43.6191 6.30004C43.3481 5.93604 42.8633 5.75404 42.1789 5.75404C41.9365 5.75404 41.6513 5.78204 41.3518 5.83804C41.0524 5.89404 40.7957 5.97804 40.6104 6.09004C40.7244 6.35604 40.7957 6.63604 40.8385 6.93004C40.8813 7.22404 40.8955 7.56004 40.8955 7.91004V11.62C40.8955 11.718 40.867 11.788 40.8385 11.816C40.81 11.844 40.7244 11.858 40.6246 11.858H39.5266C39.4268 11.858 39.3698 11.844 39.327 11.816C39.2842 11.788 39.27 11.718 39.27 11.62V7.88204C39.27 7.56004 39.2415 7.26604 39.1844 7.00004C39.1274 6.73404 39.0418 6.51004 38.8992 6.32804C38.7566 6.14604 38.5713 5.99204 38.3146 5.89404C38.0579 5.79604 37.7442 5.74004 37.345 5.74004C37.2879 5.74004 37.2166 5.74004 37.1168 5.75404C37.017 5.75404 36.9172 5.76804 36.8174 5.76804C36.7176 5.76804 36.6035 5.78204 36.5179 5.79604C36.4181 5.81004 36.3326 5.82404 36.2613 5.83804V11.62C36.1615 11.732 36.1472 11.802 36.1044 11.83Z" fill="white"/>
<path d="M53.9713 8.16206C53.9713 9.40806 53.6861 10.3601 53.0872 11.0321C52.5026 11.7041 51.6328 12.0261 50.4778 12.0261C49.3228 12.0261 48.4672 11.7041 47.9111 11.0601C47.3407 10.4161 47.0555 9.46406 47.0555 8.20406C47.0555 7.58806 47.1411 7.04206 47.3122 6.56606C47.4833 6.09006 47.7257 5.68406 48.0252 5.36206C48.3246 5.04006 48.6954 4.78806 49.1231 4.60609C49.5509 4.43809 50.0215 4.34009 50.5205 4.34009C51.647 4.34009 52.5168 4.67606 53.0872 5.36206C53.6861 6.03406 53.9713 6.97206 53.9713 8.16206ZM52.2744 8.19006C52.2744 7.85406 52.2459 7.53206 52.2031 7.23806C52.1461 6.94406 52.0605 6.67806 51.9322 6.44006C51.8039 6.21606 51.6328 6.03406 51.4046 5.89406C51.1765 5.76806 50.9055 5.69806 50.5491 5.69806C50.2496 5.69806 49.9787 5.76806 49.7505 5.89406C49.5224 6.02006 49.337 6.18806 49.1802 6.41206C49.0233 6.62206 48.9092 6.88806 48.8379 7.18206C48.7667 7.47606 48.7239 7.81206 48.7239 8.14806C48.7239 8.93206 48.8522 9.53406 49.1089 9.98206C49.3655 10.4301 49.8218 10.6541 50.4778 10.6541C50.8057 10.6541 51.0909 10.5841 51.3191 10.4441C51.5472 10.3041 51.7326 10.1221 51.8609 9.89806C52.0035 9.67406 52.1033 9.40806 52.1604 9.11407C52.2459 8.83406 52.2744 8.52606 52.2744 8.19006Z" fill="white"/>
<path d="M59.0619 11.2419C58.9621 11.5079 58.8622 11.6899 58.7339 11.7879C58.6198 11.8859 58.4345 11.9279 58.1778 11.9279H57.3793C57.1654 11.9279 56.9943 11.8859 56.8802 11.8159C56.7519 11.7319 56.6378 11.5499 56.5237 11.2419L54.2137 4.70393C54.1709 4.57793 54.228 4.50793 54.3706 4.50793H55.6539C55.7537 4.50793 55.825 4.52193 55.8678 4.54993C55.9106 4.57793 55.9391 4.61993 55.9534 4.68993L57.0513 8.00793L57.75 10.3879H57.8356L58.5343 8.02193L59.5895 4.70393C59.6037 4.63393 59.6322 4.57793 59.6608 4.54993C59.6893 4.52193 59.7606 4.50793 59.8746 4.50793H61.1295C61.2721 4.50793 61.3148 4.56393 61.2721 4.68993L59.0619 11.2419Z" fill="white"/>
<path d="M64.0954 2.58991C64.0954 2.86991 63.9956 3.10791 63.796 3.30391C63.5963 3.49991 63.3539 3.59791 63.0687 3.59791C62.7835 3.59791 62.5411 3.49991 62.3415 3.30391C62.1419 3.10791 62.0421 2.86991 62.0421 2.58991C62.0421 2.30991 62.1419 2.07191 62.3415 1.87591C62.5411 1.67991 62.7835 1.58191 63.0687 1.58191C63.3539 1.58191 63.5963 1.67991 63.796 1.87591C63.9956 2.08591 64.0954 2.30991 64.0954 2.58991ZM63.8815 11.6199C63.8815 11.7179 63.8672 11.7879 63.8245 11.8159C63.7817 11.8439 63.7104 11.8579 63.5963 11.8579H62.4984C62.3985 11.8579 62.3272 11.8439 62.2845 11.8159C62.2417 11.7879 62.2132 11.7179 62.2132 11.6199V4.75991C62.2132 4.66191 62.2417 4.59191 62.2845 4.56391C62.3272 4.53591 62.3985 4.52191 62.4984 4.52191H63.5963C63.6961 4.52191 63.7817 4.53591 63.8245 4.56391C63.8672 4.59191 63.8815 4.66191 63.8815 4.75991V11.6199Z" fill="white"/>
<path d="M70.0557 11.69C70.0557 11.732 70.0129 11.774 69.9131 11.802C69.5851 11.9 69.2714 11.97 68.9435 11.984C68.6155 11.998 68.3731 12.012 68.1877 12.012C67.4035 12.012 66.8616 11.844 66.5337 11.522C66.2057 11.2 66.0488 10.696 66.0488 10.024V5.754H65.0364C64.9366 5.754 64.8653 5.74 64.8511 5.698C64.8225 5.656 64.8083 5.6 64.8083 5.516V4.942C64.8083 4.858 64.8225 4.802 64.8511 4.76C64.8796 4.718 64.9366 4.69 65.0364 4.676L66.1201 4.43802L66.3055 3.10802C66.3198 3.01002 66.3483 2.94002 66.4053 2.89802C66.4481 2.85602 66.5194 2.82802 66.6192 2.78602L67.4462 2.50602C67.5175 2.49202 67.5888 2.49202 67.6316 2.52002C67.6744 2.54802 67.7029 2.61802 67.7029 2.71602V4.49402H69.2286C69.3285 4.49402 69.3998 4.50802 69.414 4.56402C69.4425 4.60602 69.4568 4.66202 69.4568 4.718V5.502C69.4568 5.586 69.4425 5.642 69.414 5.684C69.3855 5.726 69.3285 5.74 69.2286 5.74H67.7029V9.8C67.7029 10.094 67.7742 10.304 67.9168 10.416C68.0594 10.528 68.2733 10.584 68.5727 10.584C68.6298 10.584 68.7011 10.584 68.8009 10.584C68.9007 10.584 68.9862 10.57 69.0861 10.556C69.1859 10.542 69.2857 10.542 69.3855 10.514C69.4853 10.5 69.5709 10.486 69.6422 10.472C69.742 10.458 69.799 10.458 69.8275 10.472C69.8561 10.5 69.8703 10.542 69.8846 10.612L70.0414 11.508C70.0557 11.592 70.0557 11.648 70.0557 11.69Z" fill="white"/>
<path d="M76.943 11.06C76.943 11.284 76.8574 11.438 76.6721 11.522C76.4582 11.62 76.2443 11.69 75.9876 11.76C75.7452 11.83 75.4885 11.872 75.2319 11.914C74.9752 11.956 74.7185 11.97 74.4761 11.984C74.2195 11.998 73.9771 11.998 73.7632 11.998C73.1358 11.998 72.6082 11.942 72.1946 11.816C71.7811 11.69 71.4532 11.522 71.2108 11.312C70.9684 11.102 70.7972 10.85 70.7117 10.57C70.6119 10.29 70.5691 9.98204 70.5691 9.67404C70.5691 9.35204 70.6261 9.03004 70.7402 8.72204C70.8543 8.41404 71.0254 8.14804 71.2821 7.92404C71.5245 7.70004 71.8524 7.50404 72.2517 7.36404C72.6509 7.22404 73.1215 7.15404 73.6919 7.15404H75.2889V6.91604C75.2889 6.73404 75.2746 6.58004 75.2319 6.42604C75.1891 6.27204 75.1178 6.14604 75.018 6.03404C74.9039 5.92204 74.7613 5.83804 74.5759 5.76804C74.3906 5.71204 74.1339 5.68404 73.8345 5.68404C73.5065 5.68404 73.1643 5.71204 72.7793 5.76804C72.3943 5.82404 72.0948 5.89404 71.8524 5.96404C71.7526 5.99204 71.6671 5.99204 71.6243 5.97804C71.5815 5.96404 71.5387 5.90804 71.5245 5.82404L71.2963 5.04004C71.2535 4.88604 71.2963 4.78804 71.4246 4.74604C71.8239 4.59205 72.2659 4.49405 72.7365 4.42405C73.2071 4.36805 73.6634 4.32605 74.0769 4.32605C75.0608 4.32605 75.788 4.53605 76.2585 4.97004C76.7148 5.40404 76.9572 6.02004 76.9572 6.84604V11.06H76.943ZM75.2604 8.42804H73.8915C73.7347 8.42804 73.5635 8.44204 73.3782 8.45604C73.1928 8.47004 73.0217 8.52604 72.8506 8.61004C72.6795 8.69404 72.5511 8.82004 72.4371 8.97404C72.323 9.12804 72.2802 9.35204 72.2802 9.63204C72.2802 10.038 72.4228 10.318 72.6937 10.472C72.9646 10.626 73.3354 10.71 73.7917 10.71C73.863 10.71 73.9485 10.71 74.0769 10.71C74.1909 10.71 74.3193 10.696 74.4476 10.668C74.5759 10.654 74.7185 10.626 74.8754 10.598C75.018 10.57 75.1606 10.528 75.2889 10.486V8.42804H75.2604Z" fill="white"/>
</g>
<defs>
<clipPath id="clip0_1_118">
<rect width="77" height="14" fill="white"/>
</clipPath>
</defs>
</svg>
